<?xml version="1.0" standalone="no"?>
<!DOCTYPE svg PUBLIC "-//W3C//DTD SVG 20010904//EN"
 "http://www.w3.org/TR/2001/REC-SVG-20010904/DTD/svg10.dtd">
<svg version="1.0" xmlns="http://www.w3.org/2000/svg"
 width="512.000000pt" height="512.000000pt" viewBox="0 0 512.000000 512.000000"
 preserveAspectRatio="xMidYMid meet">
<metadata>
Created by potrace 1.11, written by Peter Selinger 2001-2013
</metadata>
<g transform="translate(0.000000,512.000000) scale(0.100000,-0.100000)"
fill="#000000" stroke="none">
<path d="M1687 3829 c-104 -24 -213 -113 -261 -211 -96 -199 -9 -442 192 -536
50 -24 69 -27 162 -27 97 0 110 2 170 31 282 134 307 522 44 690 -88 56 -206
77 -307 53z"/>
<path d="M3200 3826 c-71 -20 -125 -52 -178 -105 -193 -193 -133 -522 116
-639 50 -24 69 -27 162 -27 97 0 110 2 170 31 285 135 307 523 40 694 -85 54
-212 73 -310 46z"/>
<path d="M886 2483 c38 -626 379 -1149 934 -1428 225 -113 465 -168 740 -168
387 0 715 111 1022 345 388 295 619 739 651 1251 l5 67 -1678 0 -1678 0 4 -67z
m2600 -660 c-29 -287 -173 -535 -402 -693 -273 -189 -634 -216 -929 -71 -202
100 -365 275 -455 488 -30 72 -70 246 -70 307 l0 36 931 0 932 0 -7 -67z"/>
</g>
</svg>
